<svg xmlns="http://www.w3.org/2000/svg" xmlns:xlink="http://www.w3.org/1999/xlink" aria-hidden="true" role="img" class="iconify iconify--logos" width="31.88" height="32" preserveAspectRatio="xMidYMid meet" viewBox="0 0 256 257"><defs><linearGradient id="IconifyId1813088fe1b764fb387" x1="-.828%" x2="57.636%" y1="7.652%" y2="78.411%"><stop offset="0%" stop-color="#41D1FF"></stop><stop offset="100%" stop-color="#BD34FE"></stop></linearGradient><linearGradient id="IconifyId1813088fe1b764fb388" x1="43.376%" x2="50.316%" y1="2.242%" y2="89.03%"><stop offset="0%" stop-color="#FFBD4F"></stop><stop offset="100%" stop-color="#FF980E"></stop></linearGradient></defs><path fill="url(#IconifyId1813088fe1b764fb387)" d="M255.153 37.938L134.897 252.976c-2.483 4.44-8.118 4.466-10.636.048L.875 37.958c-2.746-4.814 1.371-10.646 6.827-9.67l120.385 21.517a6.1 6.1 0 0 0 2.172-.003l118.069-21.483c5.438-.991 9.574 4.796 6.825 9.62Z"></path><path fill="url(#IconifyId1813088fe1b764fb388)" d="M185.432.063L96.44 17.501a3.05 3.05 0 0 0-2.468 2.724l-7.202 60.733a3.05 3.05 0 0 0 3.709 3.318l25.58-5.825c2.156-.49 4.23 1.135 4.23 3.328v25.222c0 1.574-1.067 2.95-2.59 3.347l-36.78 9.601c-2.155.562-3.628 2.596-3.306 4.798l10.502 71.643c.472 3.222 4.207 4.689 6.722 2.654l18.324-14.846a3.05 3.05 0 0 1 4.923 2.382v52.425c0 2.58 3.107 3.883 4.932 2.057l16.004-16.055a3.05 3.05 0 0 1 2.164-.898h55.653c2.326 0 4.08-2.118 3.436-4.358l-19.277-66.976a3.05 3.05 0 0 0-2.93-2.21h-22.505a3.05 3.05 0 0 1-3.05-3.05v-18.726c0-1.666 1.34-3.02 3.003-3.052l53.875-1.042a3.05 3.05 0 0 0 2.97-3.395l-6.162-43.53a3.05 3.05 0 0 0-2.725-2.625l-52.812-5.233a3.05 3.05 0 0 1-2.743-2.74L86.917 3.625A3.05 3.05 0 0 0 84.15.064h-1.718Z"></path></svg>